<?xml version="1.0" encoding="UTF-8" standalone="no"?>
<svg
        id="Layer_1"
        data-name="Layer 1"
        viewBox="0 0 106.11 122.88"
        version="1.1"
        xmlns="http://www.w3.org/2000/svg">
  <defs id="defs1">
    <style id="style1">.cls-1{fill:#333;}.cls-1,.cls-2,.cls-3{fill-rule:evenodd;}.cls-2{fill:#fff;}.cls-3{fill:#3aaf3c;}</style>
  </defs>
  <title
          id="title1">DependencyFirewall</title>
  <path
          class="cls-1"
          d="M56.36,2.44A104.34,104.34,0,0,0,79.77,13.9a48.25,48.25,0,0,0,19.08,2.57l6.71-.61.33,6.74c1.23,24.79-2.77,46.33-11.16,63.33C86,103.6,72.58,116.37,55.35,122.86l-4.48,0c-16.85-6.15-30.16-18.57-39-36.47C3.63,69.58-.61,47.88.07,22l.17-6.65,6.62.34A64.65,64.65,0,0,0,28.23,13.5,60.41,60.41,0,0,0,48.92,2.79L52.51,0l3.85,2.44Z"
          id="path1" />
  <path
          class="cls-2"
          d="M52.89,7.91c17.38,11,33.07,16.22,46.55,15,2.35,47.59-15.22,82.18-46.37,93.9C23,105.83,5.21,72.45,6.53,22.18,22.34,23,37.86,19.59,52.89,7.91Z"
          id="path2" />
  <path
          class="cls-3"
          d="M52.92,16.31C67.39,25.48,80.46,29.82,91.68,28.8c2,39.63-12.68,69.83-38.61,79.6C28,99.26,13.2,70.06,14.3,28.2c13.17.69,26.1-2.16,38.62-11.89Z"
          id="path3" />
</svg>
